<?xml version="1.0" standalone="no"?>
<!DOCTYPE svg PUBLIC "-//W3C//DTD SVG 20010904//EN"
 "http://www.w3.org/TR/2001/REC-SVG-20010904/DTD/svg10.dtd">
<svg version="1.0" xmlns="http://www.w3.org/2000/svg"
 width="632.000000pt" height="594.000000pt" viewBox="0 0 632.000000 594.000000"
 preserveAspectRatio="xMidYMid meet">

<g transform="translate(0.000000,594.000000) scale(0.100000,-0.100000)"
fill="#000000" stroke="none">
<path d="M2800 5417 l0 -264 -37 -11 c-21 -6 -74 -18 -118 -27 -44 -10 -90
-21 -103 -26 -13 -5 -32 -9 -43 -9 -19 0 -26 -2 -87 -33 -46 -23 -61 -21 -68
8 -3 14 -9 25 -13 25 -3 0 -13 15 -20 33 -8 17 -21 38 -28 45 -7 7 -13 20 -13
28 0 8 -4 14 -10 14 -5 0 -10 9 -10 20 0 11 -5 20 -10 20 -6 0 -18 18 -27 40
-10 22 -21 40 -25 40 -5 0 -8 9 -8 20 0 11 -7 23 -15 26 -8 4 -15 15 -15 25 0
10 -3 19 -8 19 -7 0 -25 30 -38 63 -7 18 -29 23 -39 7 -3 -5 -23 -17 -43 -27
-20 -9 -39 -19 -42 -22 -3 -4 -14 -11 -25 -17 -64 -34 -91 -50 -103 -61 -7 -7
-20 -13 -28 -13 -8 0 -14 -3 -14 -8 0 -4 -17 -15 -37 -25 -38 -17 -73 -37 -83
-47 -9 -9 -85 -51 -102 -57 -10 -3 -18 -9 -18 -14 0 -5 -8 -9 -18 -9 -10 0
-25 -9 -35 -20 -18 -21 -22 -40 -9 -40 4 0 21 -26 37 -57 17 -32 33 -59 38
-61 4 -2 7 -12 7 -22 0 -10 7 -20 15 -24 8 -3 15 -15 15 -26 0 -11 5 -20 10
-20 6 0 10 -5 10 -11 0 -6 11 -25 25 -43 14 -18 25 -40 25 -49 0 -10 4 -17 10
-17 5 0 12 -11 16 -25 3 -14 9 -25 13 -25 3 0 12 -14 20 -30 12 -29 11 -32
-15 -55 -16 -14 -32 -25 -36 -25 -9 0 -208 -199 -208 -208 0 -4 -11 -20 -25
-36 l-25 -29 -55 28 c-30 16 -55 33 -55 37 0 4 -7 8 -17 8 -9 0 -31 11 -49 25
-18 14 -37 25 -43 25 -6 0 -11 5 -11 10 0 6 -9 10 -20 10 -11 0 -23 7 -26 15
-4 8 -15 15 -25 15 -10 0 -19 3 -19 8 0 4 -19 16 -41 27 -67 32 -79 39 -79 47
0 14 -20 9 -38 -9 -10 -10 -24 -31 -32 -48 -8 -16 -17 -32 -20 -35 -3 -3 -14
-23 -25 -45 -11 -22 -22 -42 -25 -45 -10 -10 -31 -45 -36 -62 -4 -10 -10 -18
-15 -18 -5 0 -9 -9 -9 -20 0 -11 -4 -20 -10 -20 -5 0 -10 -6 -10 -14 0 -8 -6
-21 -13 -28 -7 -7 -21 -29 -30 -48 -20 -40 -39 -73 -48 -80 -3 -3 -13 -22 -22
-42 -10 -20 -22 -40 -27 -43 -15 -9 -12 -35 4 -35 8 0 21 -6 28 -12 7 -7 27
-20 43 -28 17 -8 36 -21 43 -27 7 -7 20 -13 28 -13 8 0 14 -3 14 -8 0 -4 18
-15 40 -25 22 -9 40 -21 40 -27 0 -5 9 -10 20 -10 11 0 20 -4 20 -10 0 -5 6
-10 14 -10 8 0 21 -6 28 -13 7 -7 28 -20 46 -28 17 -7 32 -17 32 -20 0 -4 11
-10 25 -13 28 -7 32 -31 10 -60 -8 -11 -15 -30 -15 -42 0 -13 -4 -25 -9 -28
-5 -3 -11 -20 -14 -38 -2 -18 -14 -69 -26 -112 -11 -44 -21 -90 -21 -102 0
-13 -5 -35 -12 -49 l-11 -25 -264 0 -263 0 0 -350 0 -350 263 0 264 0 11 -37
c6 -21 13 -51 16 -68 2 -16 12 -57 21 -90 9 -33 19 -73 22 -90 5 -31 15 -61
39 -108 20 -41 18 -54 -13 -70 -110 -57 -138 -73 -141 -79 -2 -5 -10 -8 -18
-8 -8 0 -14 -4 -14 -10 0 -5 -11 -12 -25 -16 -14 -3 -25 -10 -25 -15 0 -5 -9
-9 -20 -9 -11 0 -20 -4 -20 -9 0 -5 -11 -12 -25 -15 -14 -4 -25 -11 -25 -16 0
-6 -7 -10 -15 -10 -8 0 -15 -3 -15 -8 0 -4 -20 -16 -45 -27 -28 -13 -45 -26
-45 -37 0 -10 4 -18 10 -18 5 0 17 -17 27 -37 9 -21 19 -40 23 -43 3 -3 14
-23 25 -45 11 -22 22 -42 25 -45 10 -10 31 -45 36 -62 4 -10 10 -18 15 -18 5
0 9 -7 9 -15 0 -14 25 -61 40 -75 3 -3 12 -18 20 -35 8 -16 28 -53 45 -81 16
-27 35 -59 41 -69 15 -27 45 -43 51 -27 3 6 13 12 24 12 10 0 19 4 19 9 0 5
10 13 23 17 12 4 24 10 27 13 3 4 22 15 43 24 20 10 37 22 37 27 0 6 9 10 20
10 11 0 20 5 20 10 0 6 6 10 14 10 8 0 21 6 28 12 7 7 27 20 43 28 17 8 36 21
43 27 7 7 20 13 28 13 8 0 14 4 14 8 0 4 13 13 30 19 28 11 31 9 62 -30 42
-54 191 -203 246 -246 37 -29 55 -61 34 -61 -4 0 -15 -18 -25 -40 -9 -22 -21
-40 -27 -40 -5 0 -10 -7 -10 -15 0 -17 -48 -98 -61 -103 -5 -2 -9 -14 -9 -27
0 -12 -7 -25 -15 -29 -8 -3 -15 -12 -15 -20 0 -8 -3 -16 -7 -18 -5 -1 -21 -29
-38 -61 -16 -31 -33 -57 -37 -57 -4 0 -8 -4 -8 -10 0 -12 32 -50 42 -50 4 0
32 -16 62 -35 30 -19 62 -35 71 -35 8 0 15 -4 15 -10 0 -5 5 -10 11 -10 6 0
25 -11 43 -25 18 -14 40 -25 49 -25 10 0 17 -4 17 -10 0 -5 6 -10 14 -10 8 0
21 -6 28 -13 12 -11 39 -27 103 -61 11 -6 22 -13 25 -17 3 -3 22 -13 43 -22
20 -10 37 -22 37 -27 0 -6 8 -10 18 -10 16 0 32 21 48 62 3 10 10 18 15 18 5
0 9 9 9 19 0 10 7 21 15 25 8 3 15 15 15 26 0 11 3 20 8 20 4 0 15 18 25 40 9
22 21 40 27 40 5 0 10 9 10 20 0 11 4 20 10 20 5 0 12 11 16 25 3 14 9 25 13
25 4 0 13 16 21 35 8 19 17 35 21 35 4 0 10 11 13 25 7 28 22 31 63 11 44 -22
76 -34 108 -41 87 -18 117 -25 134 -35 11 -5 38 -10 60 -10 23 0 41 -4 41 -10
0 -5 11 -10 25 -10 l25 0 0 -265 0 -265 350 0 350 0 0 265 0 265 25 0 c14 0
25 5 25 10 0 6 17 10 38 10 20 0 60 7 87 16 90 29 111 34 133 34 11 0 24 5 27
10 3 5 17 10 30 10 13 0 30 7 39 15 22 22 45 18 52 -10 3 -14 9 -25 13 -25 4
0 13 -16 21 -35 8 -19 17 -35 21 -35 4 0 11 -10 15 -22 4 -13 9 -25 13 -28 10
-8 29 -42 48 -82 10 -21 21 -38 25 -38 5 0 8 -6 8 -14 0 -8 6 -21 13 -28 6 -7
19 -26 27 -43 8 -16 21 -36 28 -43 6 -7 12 -20 12 -28 0 -8 9 -14 20 -14 11 0
20 5 20 10 0 6 18 18 40 27 22 10 40 21 40 25 0 5 7 8 15 8 14 0 61 25 75 40
10 10 45 31 63 36 9 4 17 10 17 15 0 5 7 9 15 9 9 0 34 12 56 26 37 23 66 40
169 97 60 33 87 68 63 79 -10 4 -52 76 -60 101 -3 9 -9 17 -14 17 -5 0 -9 9
-9 19 0 10 -7 21 -15 25 -8 3 -15 15 -15 26 0 11 -3 20 -8 20 -7 0 -25 30 -38
62 -3 10 -10 18 -15 18 -5 0 -9 9 -9 20 0 11 -4 20 -10 20 -5 0 -12 11 -16 25
-3 14 -9 25 -13 25 -4 0 -12 13 -18 30 -10 26 -8 31 13 45 14 9 47 38 74 65
28 28 53 50 56 50 7 0 34 27 34 34 0 3 22 28 48 54 27 27 56 59 65 72 12 18
21 21 46 15 17 -4 31 -10 31 -15 0 -4 11 -11 25 -14 14 -4 25 -11 25 -16 0 -6
9 -10 20 -10 11 0 20 -3 20 -8 0 -7 30 -25 63 -38 9 -3 17 -10 17 -15 0 -5 9
-9 20 -9 11 0 23 -7 26 -15 4 -8 14 -15 24 -15 10 0 20 -3 22 -7 4 -10 76 -52
101 -60 9 -3 17 -9 17 -14 0 -21 31 -7 54 24 15 19 26 36 26 40 0 3 26 50 58
104 32 54 65 113 73 131 7 17 17 32 20 32 4 0 16 17 27 37 11 21 30 58 43 83
13 25 27 47 32 48 4 2 7 9 7 17 0 7 7 18 15 25 19 16 20 50 1 50 -8 0 -21 6
-28 13 -7 6 -26 19 -43 27 -16 8 -36 21 -43 28 -7 6 -20 12 -28 12 -8 0 -14 3
-14 8 0 4 -19 16 -41 27 -67 32 -79 39 -79 47 0 5 -6 8 -14 8 -8 0 -21 6 -28
13 -7 6 -39 25 -70 42 -60 30 -69 46 -43 71 8 9 15 26 15 40 0 13 5 24 10 24
6 0 10 14 10 30 0 17 4 38 9 48 14 27 34 113 39 165 2 26 8 47 13 47 5 0 9 11
9 25 l0 25 265 0 265 0 0 350 0 350 -265 0 -265 0 0 25 c0 14 -4 25 -10 25 -5
0 -10 16 -10 36 0 20 -7 59 -16 88 -29 91 -34 112 -34 134 0 11 -4 24 -10 27
-5 3 -10 17 -10 30 0 13 -7 30 -15 39 -22 22 -18 45 10 52 14 3 25 9 25 13 0
4 16 13 35 21 19 8 35 17 35 21 0 4 11 10 25 13 14 4 25 11 25 16 0 6 9 10 20
10 11 0 20 5 20 10 0 6 18 18 40 27 22 10 40 21 40 25 0 5 9 8 20 8 11 0 23 7
26 15 4 8 15 15 25 15 10 0 19 3 19 8 0 7 30 25 63 38 18 7 24 44 7 44 -6 0
-18 18 -27 40 -10 22 -21 40 -25 40 -5 0 -8 7 -8 15 0 14 -25 61 -40 75 -10
10 -31 45 -36 63 -4 9 -10 17 -15 17 -5 0 -9 7 -9 15 0 9 -12 34 -26 57 -43
68 -85 142 -91 161 -3 9 -9 17 -14 17 -5 0 -9 6 -9 13 0 14 -35 47 -50 47 -6
0 -10 -4 -10 -8 0 -4 -26 -21 -57 -37 -32 -17 -59 -33 -61 -37 -2 -5 -9 -8
-17 -8 -7 0 -18 -7 -25 -15 -7 -8 -21 -15 -30 -15 -10 0 -20 -4 -22 -9 -5 -13
-86 -61 -103 -61 -8 0 -15 -5 -15 -10 0 -6 -18 -18 -40 -27 -22 -10 -40 -21
-40 -25 0 -21 -32 -4 -60 32 -45 57 -197 209 -247 248 -39 31 -41 34 -30 62 6
17 15 30 19 30 4 0 8 6 8 14 0 8 6 21 13 28 6 7 19 27 27 43 8 17 21 36 28 43
6 7 12 20 12 28 0 8 5 14 10 14 6 0 10 9 10 20 0 11 4 20 10 20 5 0 17 17 27
38 9 20 20 39 24 42 3 3 9 15 13 28 4 12 12 22 17 22 5 0 9 9 9 20 0 11 5 20
10 20 15 0 12 20 -7 38 -15 16 -32 26 -95 59 -15 8 -30 18 -33 24 -4 5 -15 9
-26 9 -10 0 -19 5 -19 10 0 6 -5 10 -11 10 -6 0 -25 11 -43 25 -18 14 -40 25
-49 25 -10 0 -17 4 -17 9 0 5 -8 11 -17 15 -18 5 -53 26 -63 36 -3 3 -23 14
-45 25 -22 11 -42 22 -45 25 -3 4 -22 14 -42 23 -21 10 -38 22 -38 27 0 6 -9
10 -20 10 -11 0 -20 -6 -20 -14 0 -8 -6 -21 -12 -28 -7 -7 -20 -26 -28 -43 -8
-16 -21 -36 -27 -43 -7 -7 -13 -20 -13 -28 0 -8 -3 -14 -8 -14 -4 0 -15 -17
-25 -37 -19 -41 -38 -75 -48 -83 -4 -3 -9 -15 -13 -27 -4 -13 -12 -23 -17 -23
-5 0 -9 -7 -9 -16 0 -9 -8 -28 -18 -42 -10 -15 -22 -35 -25 -44 -8 -22 -26
-23 -64 -4 -43 22 -75 34 -103 40 -14 2 -54 12 -90 21 -36 9 -78 18 -95 21
-16 3 -47 10 -67 16 l-38 11 0 264 0 263 -350 0 -350 0 0 -263z m530 -943 c52
-4 100 -10 105 -14 6 -4 28 -10 50 -13 65 -8 135 -28 135 -38 0 -5 16 -9 35
-9 19 0 35 -4 35 -10 0 -5 5 -10 12 -10 6 0 30 -9 52 -19 23 -11 61 -29 86
-40 48 -23 82 -42 90 -52 3 -4 15 -9 28 -13 12 -4 22 -12 22 -17 0 -5 7 -9 15
-9 8 0 15 -4 15 -10 0 -5 7 -10 15 -10 9 0 18 -7 21 -15 4 -8 11 -15 16 -15 6
0 18 -8 27 -18 9 -9 33 -30 55 -46 49 -37 115 -103 152 -152 16 -22 37 -46 46
-55 10 -9 18 -21 18 -27 0 -5 7 -12 15 -16 8 -3 15 -11 15 -18 0 -7 11 -26 25
-42 14 -16 25 -35 25 -43 0 -7 3 -13 8 -13 8 0 11 -6 55 -97 16 -32 35 -71 43
-86 8 -16 14 -35 14 -43 0 -8 5 -14 10 -14 6 0 10 -16 10 -35 0 -19 4 -35 9
-35 10 0 29 -67 37 -130 3 -19 9 -44 14 -55 5 -11 11 -58 15 -103 3 -46 10
-106 16 -134 11 -51 10 -66 -15 -238 -9 -58 -18 -123 -21 -145 -4 -22 -10 -49
-14 -60 -21 -52 -34 -92 -38 -118 -3 -15 -9 -27 -14 -27 -5 0 -9 -10 -9 -23 0
-13 -7 -32 -15 -43 -8 -10 -15 -27 -15 -36 0 -10 -4 -18 -10 -18 -5 0 -10 -6
-10 -14 0 -18 -32 -76 -42 -76 -5 0 -8 -5 -8 -10 0 -6 -16 -36 -35 -66 -19
-30 -35 -59 -35 -64 0 -6 -7 -10 -15 -10 -8 0 -15 -7 -15 -15 0 -8 -4 -15 -8
-15 -4 0 -16 -14 -25 -30 -23 -38 -195 -210 -211 -210 -6 0 -18 -9 -26 -20 -8
-11 -20 -20 -27 -20 -7 0 -13 -4 -13 -9 0 -10 -124 -91 -140 -91 -5 0 -10 -3
-10 -8 0 -4 -15 -15 -32 -23 -109 -53 -145 -69 -161 -69 -9 0 -17 -4 -17 -10
0 -5 -11 -10 -24 -10 -13 0 -37 -7 -52 -15 -16 -8 -37 -15 -46 -15 -9 0 -20
-4 -23 -10 -3 -5 -24 -10 -46 -10 -21 0 -47 -4 -57 -9 -21 -11 -219 -35 -292
-35 -76 0 -281 24 -302 35 -10 5 -31 9 -48 9 -17 0 -38 4 -48 9 -28 14 -85 33
-114 38 -16 3 -28 9 -28 14 0 5 -10 9 -23 9 -13 0 -32 7 -43 15 -10 8 -27 15
-36 15 -10 0 -18 5 -18 10 0 6 -7 10 -15 10 -20 0 -225 129 -225 141 0 5 -7 9
-15 9 -8 0 -15 4 -15 8 0 4 -13 16 -30 25 -38 23 -194 179 -217 217 -9 17 -21
30 -25 30 -4 0 -8 7 -8 15 0 8 -6 15 -13 15 -7 0 -19 16 -27 35 -8 19 -16 35
-20 35 -3 0 -14 17 -25 38 -11 20 -22 39 -25 42 -15 14 -40 61 -40 75 0 8 -4
15 -10 15 -5 0 -10 8 -10 18 0 10 -7 27 -15 38 -8 10 -15 29 -15 42 0 12 -4
22 -10 22 -5 0 -10 13 -10 28 0 15 -4 32 -9 38 -5 5 -17 41 -26 79 -9 39 -21
86 -25 105 -5 19 -16 106 -26 192 -12 117 -14 165 -6 187 6 17 14 69 18 116 4
47 11 88 15 91 5 3 9 25 9 49 0 24 5 47 10 50 6 3 10 16 10 29 0 12 7 31 15
42 8 10 15 31 15 47 0 15 5 27 10 27 6 0 10 7 10 16 0 21 79 188 91 192 5 2 9
10 9 18 0 8 4 14 9 14 5 0 12 11 15 25 4 14 11 25 16 25 6 0 10 7 10 15 0 8 5
15 10 15 6 0 10 7 10 15 0 9 7 18 15 21 8 4 15 11 15 16 0 6 8 18 18 27 9 9
30 33 46 55 37 49 103 115 152 152 22 16 46 37 55 46 9 10 21 18 27 18 5 0 12
7 16 15 3 8 12 15 21 15 8 0 15 5 15 10 0 6 7 10 15 10 8 0 15 4 15 10 0 5 11
12 25 16 14 3 25 10 25 14 0 4 8 10 18 14 9 3 31 14 47 24 17 10 62 31 100 47
39 16 72 33 73 37 2 4 19 8 38 8 19 0 34 4 34 9 0 10 67 29 130 38 19 2 42 7
50 11 27 11 253 30 315 26 33 -2 103 -6 155 -10z"/>
<path d="M2545 3563 c3 -16 24 -73 47 -128 22 -55 59 -154 83 -220 24 -66 67
-178 94 -250 28 -71 51 -134 51 -139 0 -5 9 -28 19 -50 11 -23 34 -79 51 -126
17 -47 51 -138 76 -202 l46 -118 74 0 74 0 33 68 c19 37 47 99 62 137 15 39
43 100 61 137 19 37 45 96 58 130 13 35 45 108 71 163 26 55 55 120 65 145 10
25 36 84 58 131 23 47 50 108 60 135 11 27 36 82 55 123 20 41 34 78 31 83 -8
13 -138 9 -156 -4 -8 -7 -27 -42 -41 -78 -14 -36 -39 -95 -56 -132 -17 -37
-37 -83 -45 -103 l-15 -35 -282 2 -281 3 -57 165 c-31 91 -60 171 -64 178 -5
8 -37 12 -94 12 l-85 0 7 -27z m785 -480 c0 -9 -75 -192 -112 -273 -17 -36
-40 -92 -53 -125 -13 -33 -33 -82 -45 -110 l-21 -49 -19 41 c-10 23 -37 100
-60 170 -23 70 -48 142 -55 158 -8 17 -27 67 -43 113 l-29 82 218 0 c121 0
219 -3 219 -7z"/>
</g>
</svg>
